<svg width="240" height="56" viewBox="0 0 240 56" fill="none" xmlns="http://www.w3.org/2000/svg">
<path d="M79.5207 40.4875C78.796 40.4875 78.0521 40.4679 77.2892 40.4287C76.539 40.4026 75.7697 40.357 74.9814 40.2917C74.193 40.2395 73.3729 40.1612 72.521 40.0569V11.7937C73.3221 11.6241 74.1613 11.4805 75.0386 11.3631C75.9287 11.2326 76.8251 11.1348 77.7279 11.0695C78.6307 11.0043 79.5144 10.9716 80.379 10.9716C85.1854 10.9716 88.8092 12.1786 91.2505 14.5926C93.6919 16.9936 94.9125 20.7124 94.9125 25.7491C94.9125 29.1678 94.3403 31.9668 93.196 34.1459C92.0516 36.3119 90.335 37.9104 88.0463 38.9412C85.7703 39.972 82.9284 40.4875 79.5207 40.4875ZM80.4362 37.0231C82.7377 37.0231 84.6513 36.6447 86.1772 35.8878C87.703 35.118 88.8474 33.9045 89.6103 32.2473C90.3732 30.5901 90.7546 28.4176 90.7546 25.7296C90.7546 23.0677 90.3795 20.9081 89.6293 19.251C88.8791 17.5807 87.7475 16.3607 86.2344 15.5908C84.734 14.8079 82.8521 14.4165 80.5888 14.4165C79.9658 14.4165 79.3046 14.4491 78.6052 14.5143C77.9186 14.5665 77.2383 14.6513 76.5644 14.7688V36.8078C77.1875 36.873 77.8042 36.9252 78.4145 36.9643C79.0376 37.0035 79.7115 37.0231 80.4362 37.0231Z" fill="black"/>
<path d="M99.8646 40.233V16.9414H103.889V40.233H99.8646Z" fill="black"/>
<path d="M115.28 40.233L107.136 16.9414H111.313L118.751 38.6085H117.874L125.37 16.9414H129.337L121.193 40.233H115.28Z" fill="black"/>
<path d="M132.572 40.233V16.9414H148.536V20.073H136.52V37.1014H148.688V40.233H132.572ZM135.013 29.8986V26.7669H146.914V29.8986H135.013Z" fill="black"/>
<path d="M158.799 40.233L150.979 11.2652H155.118L162.175 38.3149H161.164L168.526 11.2652H173.161L180.39 38.3149H179.455L186.607 11.2652H190.479L182.678 40.233H177.433L170.281 13.8489H171.33L164.044 40.233H158.799Z" fill="black"/>
<path d="M193.627 40.233V16.9414H197.651V40.233H193.627Z" fill="black"/>
<path d="M208.852 40.5266C207.784 40.5266 206.697 40.4418 205.59 40.2722C204.484 40.1156 203.461 39.8937 202.52 39.6067V36.2989C203.232 36.5207 203.957 36.7034 204.694 36.8469C205.432 36.9904 206.15 37.1014 206.849 37.1797C207.561 37.2579 208.229 37.2971 208.852 37.2971C210.098 37.2971 211.109 37.1601 211.884 36.8861C212.66 36.612 213.22 36.2206 213.563 35.7117C213.919 35.2028 214.097 34.583 214.097 33.8523C214.097 33.239 213.976 32.717 213.735 32.2864C213.493 31.8558 213.067 31.484 212.457 31.1708C211.859 30.8576 211.02 30.5706 209.939 30.3096L208.585 30.016C206.296 29.5071 204.63 28.7242 203.588 27.6673C202.545 26.6103 202.024 25.2076 202.024 23.4591C202.024 22.1151 202.354 20.9342 203.016 19.9164C203.69 18.8856 204.726 18.0831 206.124 17.509C207.523 16.9348 209.31 16.6478 211.484 16.6478C212.425 16.6478 213.366 16.7065 214.307 16.8239C215.248 16.9283 216.1 17.0849 216.863 17.2937V20.5819C216.011 20.347 215.14 20.1709 214.25 20.0534C213.359 19.936 212.463 19.8773 211.56 19.8773C210.187 19.8773 209.094 20.0143 208.28 20.2883C207.466 20.5623 206.875 20.9538 206.506 21.4627C206.15 21.9585 205.972 22.5522 205.972 23.2438C205.972 24.1703 206.245 24.8944 206.792 25.4164C207.339 25.9253 208.388 26.3689 209.939 26.7473L211.293 27.0409C212.883 27.3932 214.167 27.8565 215.146 28.4306C216.138 29.0047 216.863 29.7159 217.32 30.564C217.791 31.4122 218.026 32.43 218.026 33.6174C218.026 35.0136 217.683 36.2271 216.996 37.2579C216.309 38.2888 215.286 39.0913 213.925 39.6654C212.565 40.2395 210.874 40.5266 208.852 40.5266Z" fill="black"/>
<path d="M222.385 40.233V16.9414H238.349V20.073H226.333V37.1014H238.502V40.233H222.385ZM224.827 29.8986V26.7669H236.728V29.8986H224.827Z" fill="black"/>
<path d="M166.829 54.9126V49.7405H164.841V49.0897H169.59V49.7405H167.602V54.9126H166.829Z" fill="black"/>
<path d="M170.474 54.9126V49.0897H174.284V49.7111H171.232V54.2912H174.327V54.9126H170.474ZM170.951 52.2409V51.6244H173.888V52.2409H170.951Z" fill="black"/>
<path d="M177.837 54.986C177.265 54.986 176.769 54.8882 176.349 54.6924C175.933 54.4967 175.61 54.1819 175.381 53.748C175.156 53.3109 175.043 52.7319 175.043 52.011C175.043 51.3194 175.156 50.7534 175.381 50.313C175.61 49.8694 175.938 49.5431 176.364 49.3344C176.79 49.1223 177.303 49.0163 177.904 49.0163C178.133 49.0163 178.355 49.0294 178.571 49.0555C178.791 49.0816 179 49.1223 179.201 49.1778V49.8384C178.994 49.7829 178.787 49.7421 178.581 49.716C178.374 49.6899 178.163 49.6769 177.947 49.6769C177.492 49.6769 177.109 49.7536 176.797 49.9069C176.486 50.0569 176.251 50.3032 176.092 50.6457C175.933 50.985 175.853 51.4368 175.853 52.0012C175.853 52.5851 175.933 53.0467 176.092 53.3859C176.254 53.7252 176.488 53.9666 176.793 54.1101C177.098 54.2537 177.467 54.3254 177.899 54.3254C178.118 54.3254 178.331 54.3091 178.538 54.2765C178.748 54.2406 178.969 54.1868 179.201 54.115V54.7756C179.004 54.8409 178.789 54.8914 178.557 54.9273C178.328 54.9664 178.088 54.986 177.837 54.986Z" fill="black"/>
<path d="M180.206 54.9126V49.0897H180.978V51.5852H184.044V49.0897H184.812V54.9126H184.044V52.2654H180.978V54.9126H180.206Z" fill="black"/>
<path d="M186.446 54.9126V49.0897H187.223L190.584 53.9976H190.427V49.0897H191.152V54.9126H190.37L187.008 50.0047H187.166V54.9126H186.446Z" fill="black"/>
<path d="M192.778 54.9126V49.0897H193.551V54.9126H192.778Z" fill="black"/>
<path d="M197.618 54.986C197.045 54.986 196.55 54.8882 196.13 54.6924C195.713 54.4967 195.391 54.1819 195.162 53.748C194.936 53.3109 194.823 52.7319 194.823 52.011C194.823 51.3194 194.936 50.7534 195.162 50.313C195.391 49.8694 195.718 49.5431 196.144 49.3344C196.57 49.1223 197.084 49.0163 197.684 49.0163C197.913 49.0163 198.136 49.0294 198.352 49.0555C198.571 49.0816 198.781 49.1223 198.981 49.1778V49.8384C198.775 49.7829 198.568 49.7421 198.361 49.716C198.155 49.6899 197.943 49.6769 197.727 49.6769C197.273 49.6769 196.89 49.7536 196.578 49.9069C196.267 50.0569 196.031 50.3032 195.872 50.6457C195.713 50.985 195.634 51.4368 195.634 52.0012C195.634 52.5851 195.713 53.0467 195.872 53.3859C196.035 53.7252 196.268 53.9666 196.573 54.1101C196.879 54.2537 197.247 54.3254 197.68 54.3254C197.899 54.3254 198.112 54.3091 198.319 54.2765C198.528 54.2406 198.749 54.1868 198.981 54.115V54.7756C198.784 54.8409 198.57 54.8914 198.338 54.9273C198.109 54.9664 197.869 54.986 197.618 54.986Z" fill="black"/>
<path d="M199.319 54.9126L201.441 49.0897H202.538L204.669 54.9126H203.887L201.927 49.4322H202.042L200.077 54.9126H199.319ZM200.482 53.0972L200.659 52.4709H203.319L203.491 53.0972H200.482Z" fill="black"/>
<path d="M205.63 54.9126V49.0897H206.403V54.2618H209.335V54.9126H205.63Z" fill="black"/>
<path d="M214.013 54.9616C213.781 54.9616 213.543 54.955 213.298 54.942C213.053 54.9289 212.804 54.9077 212.55 54.8784V49.1925C212.715 49.1566 212.888 49.1272 213.069 49.1044C213.254 49.0783 213.44 49.0587 213.627 49.0457C213.815 49.0326 213.996 49.0261 214.171 49.0261C215.185 49.0261 215.949 49.2691 216.464 49.7552C216.979 50.2412 217.237 50.9915 217.237 52.0061C217.237 52.6911 217.116 53.2506 216.874 53.6844C216.633 54.1183 216.274 54.4396 215.797 54.6484C215.32 54.8572 214.726 54.9616 214.013 54.9616ZM214.185 54.3205C214.687 54.3205 215.105 54.2423 215.439 54.0857C215.776 53.9258 216.029 53.6763 216.197 53.337C216.366 52.9945 216.45 52.5492 216.45 52.0012C216.45 51.4564 216.367 51.0127 216.202 50.6702C216.037 50.3277 215.789 50.0749 215.458 49.9118C215.128 49.7487 214.714 49.6671 214.219 49.6671C214.066 49.6671 213.91 49.6753 213.751 49.6916C213.592 49.7046 213.449 49.7226 213.322 49.7454V54.2716C213.456 54.2879 213.592 54.301 213.732 54.3108C213.875 54.3173 214.026 54.3205 214.185 54.3205Z" fill="black"/>
<path d="M218.51 54.9126V49.0897H219.282V54.9126H218.51Z" fill="black"/>
<path d="M222.272 54.9126L220.159 49.0897H220.965L222.93 54.5848H222.767L224.746 49.0897H225.509L223.397 54.9126H222.272Z" fill="black"/>
<path d="M226.389 54.9126V49.0897H227.161V54.9126H226.389Z" fill="black"/>
<path d="M228.791 54.9126V49.0897H229.569L232.93 53.9976H232.773V49.0897H233.498V54.9126H232.716L229.354 50.0047H229.511V54.9126H228.791Z" fill="black"/>
<path d="M237.923 54.9664C237.227 54.9664 236.645 54.8621 236.178 54.6533C235.711 54.4445 235.358 54.1232 235.119 53.6893C234.884 53.2522 234.767 52.6927 234.767 52.011C234.767 51.3161 234.889 50.7485 235.134 50.3081C235.378 49.8677 235.727 49.5431 236.178 49.3344C236.632 49.1223 237.171 49.0163 237.794 49.0163C238.033 49.0163 238.266 49.031 238.495 49.0604C238.727 49.0864 238.945 49.1272 239.149 49.1827V49.8482C238.916 49.7829 238.694 49.7372 238.481 49.7111C238.271 49.6818 238.06 49.6671 237.847 49.6671C237.367 49.6671 236.957 49.7438 236.617 49.8971C236.28 50.0504 236.021 50.2983 235.839 50.6409C235.658 50.9834 235.568 51.4417 235.568 52.0158C235.568 52.5574 235.653 52.9994 235.825 53.3419C235.997 53.6812 236.253 53.9291 236.593 54.0857C236.933 54.2423 237.357 54.3205 237.866 54.3205C238.038 54.3205 238.211 54.314 238.386 54.301C238.564 54.2847 238.726 54.2635 238.872 54.2374L238.562 54.5358V52.0844H239.287V54.849C239.048 54.8882 238.815 54.9175 238.586 54.9371C238.357 54.9567 238.136 54.9664 237.923 54.9664Z" fill="black"/>
<path d="M60.4552 17.8774C60.4981 18.4764 60.6859 18.9768 61.0187 19.3785C61.0771 19.449 61.0823 19.5232 61.0341 19.6012C60.5382 20.4052 60.5164 20.991 60.4902 21.8465C60.4893 21.8724 60.4833 21.8978 60.4726 21.9212C60.4619 21.9446 60.4468 21.9655 60.4282 21.9826C60.4095 21.9997 60.3878 22.0127 60.3642 22.0208C60.3406 22.0288 60.3157 22.0318 60.2911 22.0295L59.6732 21.9777C59.5958 21.9701 59.5384 22.0018 59.5009 22.0729L59.4631 22.1486C59.4583 22.1578 59.4555 22.168 59.4548 22.1785C59.4542 22.189 59.4557 22.1994 59.4593 22.2092C59.4629 22.219 59.4685 22.2279 59.4757 22.2353C59.4829 22.2426 59.4916 22.2483 59.5011 22.2519C59.9243 22.4171 60.5117 22.4828 60.7433 22.9081C60.8225 23.0542 60.8969 23.2283 60.9664 23.4303C60.591 24.0764 60.3249 24.4795 60.1682 24.6397C59.7224 25.1009 59.202 25.275 58.6072 25.162C58.5182 25.1454 58.4641 25.1826 58.4449 25.2738C58.4148 25.4188 58.3758 25.5665 58.3279 25.7166C58.2862 25.8463 58.2316 25.8521 58.1643 25.7339C58.1164 25.6502 58.112 25.5628 58.151 25.4717C58.2362 25.2684 58.3543 25.0707 58.2558 24.8422C57.8335 23.8625 56.9294 23.4547 55.9773 23.3179C55.6828 23.2754 55.4362 23.3897 55.2375 23.6607C54.8578 24.1786 54.7679 24.7897 54.9678 25.4939C54.9913 25.578 55.0444 25.6284 55.1273 25.6452C55.4834 25.7142 55.7929 25.8379 55.9803 26.1867C56.1808 26.5614 56.4581 26.9231 56.8121 27.2718C57.0174 27.4718 57.1799 27.7699 57.2403 28.0552C57.2544 28.1203 57.2555 28.1877 57.2437 28.2535C57.2319 28.3192 57.2075 28.3819 57.1717 28.4379C57.136 28.4938 57.0898 28.5419 57.0357 28.5793C56.9817 28.6167 56.9209 28.6425 56.8571 28.6554L56.4453 28.7402C56.3385 28.7617 56.3113 28.8211 56.3636 28.9184L56.5787 29.3162C56.6173 29.3885 56.6309 29.4722 56.6173 29.5537C56.6037 29.6351 56.5637 29.7095 56.5038 29.7645C56.3469 29.9058 56.1529 29.9761 55.9218 29.9756C55.2649 29.9749 54.6127 30.0271 53.9651 30.1322C53.4026 30.2679 52.8331 30.5338 52.2805 30.526C51.6735 30.5168 51.1906 30.2431 50.6443 30.0271C49.8152 29.7009 48.6335 30.2508 47.9425 30.73C47.8803 30.7736 47.8365 30.84 47.8202 30.9154C47.8038 30.9907 47.8162 31.0694 47.8547 31.1352C48.1865 31.7078 48.2928 32.249 48.1735 32.7588C48.0017 33.4923 48.5607 34.6532 48.885 35.282C49.047 35.5988 49.1743 35.9512 49.2668 36.3392C49.433 37.0313 48.9035 37.5023 48.3802 37.8665C48.0518 38.0325 47.6965 38.1466 47.3143 38.2086C46.3698 38.3586 46.1774 36.9608 45.8092 36.3543C45.1879 35.3268 44.9004 34.1958 44.1861 33.226C44.1755 33.2119 44.1617 33.2007 44.1458 33.1934C44.1299 33.1862 44.1125 33.1832 44.0952 33.1846C44.0779 33.1861 44.0611 33.192 44.0466 33.2018C44.032 33.2115 44.02 33.2249 44.0117 33.2407C43.9353 33.3888 43.8928 33.5387 43.884 33.6904C43.8785 33.788 43.8362 33.8634 43.7572 33.9166C43.468 34.1109 43.2137 34.3489 42.9944 34.6306C42.4268 35.3586 41.4738 35.3958 40.7231 34.966C40.5924 34.8922 40.4854 34.7943 40.4022 34.6723C40.3381 34.58 40.3189 34.4772 40.3447 34.3641L40.5062 33.6659C40.5131 33.6362 40.512 33.6052 40.503 33.5763C40.4939 33.5473 40.4772 33.5215 40.4548 33.5017C40.4324 33.482 40.4051 33.469 40.3759 33.4643C40.3468 33.4595 40.3169 33.4632 40.2896 33.4749C39.878 33.6524 39.4715 33.6474 39.0701 33.46C38.9205 33.3903 38.751 33.3805 38.5945 33.4326C38.438 33.4847 38.3057 33.5949 38.2233 33.7417C37.5236 34.9897 36.6522 36.0395 35.6093 36.8912C34.5332 37.5684 33.2498 37.7704 31.7591 37.4973C31.155 37.3852 30.7591 37.1968 30.5716 36.9319C30.2182 36.4303 30.3613 35.2425 29.485 35.4536C28.4551 35.7009 27.3114 35.9639 26.0539 36.2428L23.9716 36.4399C23.8795 36.4485 23.7876 36.4226 23.7124 36.367C23.6372 36.3113 23.5837 36.2296 23.5616 36.1366L22.6842 32.3796L22.4139 29.5526C22.4097 29.5073 22.3967 29.4634 22.3757 29.4235C22.3546 29.3835 22.326 29.3483 22.2913 29.32C22.2567 29.2917 22.2169 29.2709 22.1741 29.2587C22.1314 29.2465 22.0867 29.2433 22.0427 29.2492L19.2349 29.6464C19.2127 29.6493 19.1902 29.6453 19.1702 29.6349C19.1502 29.6246 19.1337 29.6084 19.1227 29.5884C19.1116 29.5684 19.1066 29.5454 19.1081 29.5224C19.1097 29.4994 19.1179 29.4774 19.1315 29.4591C19.2181 29.3465 19.3239 29.2526 19.449 29.1774C20.3367 28.6465 21.2385 28.1668 22.1545 27.7383C22.1996 27.7175 22.2367 27.6818 22.2598 27.6369C22.2828 27.592 22.2905 27.5406 22.2816 27.491C22.0421 26.1729 21.7969 24.7334 21.5459 23.1723C21.4322 22.4637 21.0032 22.0004 20.2589 21.7825C18.9515 21.3995 17.7364 21.242 16.6136 21.3099C16.0229 21.3455 15.41 21.2517 14.7749 21.0286C14.2482 20.844 13.702 20.7113 13.1363 20.6304C12.1164 20.4875 11.0916 20.3726 10.0619 20.2855L2.59756 19.3116L2.74619 19.16C3.59719 18.4295 4.46676 18.6249 4.69249 18.6289C7.54787 18.6803 10.4029 18.7567 13.2575 18.8581C14.7648 18.9115 16.043 18.7192 17.4912 18.5112C18.5575 18.3575 19.6464 18.4447 20.7135 18.3077C21.9199 18.1531 23.1163 17.9757 24.3027 17.7755C24.3897 17.7604 24.479 17.7785 24.5544 17.8264C24.6298 17.8743 24.6862 17.9489 24.7132 18.0365C24.9046 18.6648 24.9968 19.271 24.9899 19.8549C24.9893 19.9442 25.0099 20.0276 25.0515 20.1051C25.2866 20.5352 25.1975 20.8725 24.7843 21.1171C24.7245 21.1528 24.6753 21.2049 24.6422 21.2675C24.6091 21.3301 24.5934 21.4009 24.5967 21.472C24.6001 21.5432 24.6224 21.6119 24.6612 21.6707C24.7 21.7296 24.7538 21.7762 24.8167 21.8054C25.5648 22.1569 26.3318 22.2752 26.2856 23.3684C26.2711 23.7056 26.2588 24.0363 26.2488 24.3604C26.2407 24.5892 26.3103 24.6177 26.4575 24.4458C26.6403 24.2307 26.8372 24.0511 27.048 23.9071C28.1733 23.1341 28.7049 23.9046 29.0172 24.9568C29.0409 25.0394 29.0944 25.0884 29.1776 25.1036L29.4737 25.1559C29.5202 25.1643 29.5633 25.1867 29.5973 25.2205C29.6313 25.2542 29.6548 25.2976 29.6647 25.3453C29.6747 25.3929 29.6707 25.4425 29.6532 25.4878C29.6356 25.5331 29.6055 25.5721 29.5665 25.5997L29.0449 25.976C29.0292 25.9875 29.0165 26.0028 29.008 26.0206C28.9994 26.0383 28.9953 26.058 28.996 26.0778C28.9967 26.0976 29.0022 26.1169 29.0119 26.134C29.0217 26.151 29.0354 26.1653 29.0519 26.1755C29.3307 26.3437 29.6128 26.4773 29.7401 26.8093C29.8523 27.1047 29.9885 27.3878 30.1488 27.6586C30.1948 27.7372 30.2625 27.777 30.352 27.7781C31.7852 27.7831 32.856 27.1525 33.5645 25.8862C33.6565 25.723 33.6126 25.6253 33.4328 25.5932C32.812 25.4841 32.4129 25.3436 32.1692 24.661C32.0262 24.2609 32.0726 23.9306 32.3084 23.6701C32.7273 23.4206 33.0005 23.2696 33.1281 23.217C33.8448 22.9158 34.2706 23.4796 34.6131 24.0187C34.7453 24.2262 34.7961 24.207 34.7655 23.961C34.7436 23.7768 34.6694 23.602 34.5428 23.4366C34.2218 23.0134 34.1083 22.4704 34.2257 21.9453C34.3476 21.411 34.3401 20.833 34.2035 20.2115C34.07 19.6096 34.2353 19.198 34.6995 18.9766C36.4484 18.1438 38.2014 17.3332 39.9585 16.5447C41.857 15.4558 43.7875 14.4437 45.7499 13.5083C45.9206 13.4268 46.2873 13.2928 46.8501 13.1061C47.1978 13.122 47.4983 12.9815 47.7516 12.6844L49.1555 11.7004C50.413 11.1484 51.5696 11.2455 52.6253 11.992C52.9098 12.1921 53.1205 12.3016 53.2577 12.3204C53.585 12.366 53.8107 12.1997 53.935 11.8214C53.9681 11.7163 54.0359 11.6493 54.1382 11.6205C54.3827 11.5489 54.6143 11.6038 54.8331 11.785C54.9152 11.8518 55.0067 11.8707 55.1077 11.8415L55.6076 11.7002C55.705 11.6733 55.7777 11.7049 55.8256 11.7949L55.9788 12.0837C56.0182 12.1575 56.0787 12.2026 56.1601 12.219C56.3806 12.2594 56.5349 12.393 56.6231 12.6198C56.6565 12.7036 56.7093 12.7778 56.777 12.8357L57.1336 13.1427C57.1671 13.1706 57.1904 13.2094 57.1998 13.2528L57.4369 14.4541C57.4528 14.538 57.4396 14.6157 57.3975 14.6872L57.2431 14.9539C57.175 15.0726 57.2074 15.1274 57.3402 15.1185C57.7146 15.0977 58.0208 15.0653 58.3765 15.2567C59.4219 15.8216 60.1148 16.6952 60.4552 17.8774ZM55.8112 12.4484C55.8378 12.2382 55.7677 12.1256 55.6007 12.1106C55.5731 12.1087 55.5454 12.1141 55.5203 12.1262C55.4951 12.1382 55.4733 12.1567 55.4569 12.1798C55.4405 12.2028 55.43 12.2298 55.4264 12.2581C55.4228 12.2865 55.4261 12.3153 55.4362 12.3419C55.4734 12.4325 55.5313 12.5021 55.6099 12.5508C55.7262 12.6211 55.7933 12.587 55.8112 12.4484ZM54.3024 12.0814C54.2427 12.1032 54.215 12.1413 54.2193 12.1957C54.2209 12.2354 54.2404 12.2597 54.2779 12.2687L54.3991 12.2978C54.4229 12.3034 54.4479 12.3014 54.4707 12.292C54.4934 12.2826 54.5128 12.2662 54.5264 12.2451C54.5399 12.224 54.5468 12.1992 54.5462 12.1739C54.5456 12.1487 54.5376 12.1242 54.5231 12.1038C54.5034 12.0771 54.4802 12.0519 54.4537 12.0283C54.4213 12.0033 54.3866 11.9957 54.3493 12.0056C54.3329 12.0111 54.3239 12.027 54.3225 12.0533C54.3223 12.0674 54.3156 12.0768 54.3024 12.0814ZM53.658 12.9463C53.6696 12.8954 53.6611 12.8419 53.6345 12.7975C53.6078 12.7531 53.5651 12.7215 53.5158 12.7097C53.4664 12.6978 53.4145 12.7067 53.3714 12.7343C53.3283 12.762 53.2976 12.8061 53.2859 12.857C53.2743 12.9079 53.2828 12.9615 53.3095 13.0059C53.3362 13.0502 53.3789 13.0818 53.4282 13.0937C53.4775 13.1055 53.5295 13.0967 53.5726 13.069C53.6157 13.0414 53.6464 12.9973 53.658 12.9463ZM55.3269 15.2212C55.2906 15.1572 55.1865 15.1378 55.0374 15.1672C54.8883 15.1966 54.7065 15.2724 54.5319 15.3779C54.4454 15.4301 54.3634 15.4881 54.2903 15.5485C54.2173 15.6089 54.1548 15.6706 54.1064 15.7299C54.0579 15.7893 54.0245 15.8452 54.008 15.8944C53.9915 15.9437 53.9922 15.9853 54.0101 16.017C54.0464 16.081 54.1505 16.1004 54.2996 16.071C54.4487 16.0416 54.6305 15.9658 54.8051 15.8603C54.8916 15.808 54.9737 15.7501 55.0467 15.6897C55.1197 15.6293 55.1822 15.5676 55.2307 15.5083C55.2791 15.4489 55.3125 15.393 55.329 15.3438C55.3456 15.2945 55.3448 15.2529 55.3269 15.2212ZM27.2866 28.7846C27.374 29.2687 27.3991 29.7189 27.3619 30.1354C27.3422 30.3552 27.4264 30.4131 27.6143 30.3091L27.7893 30.2122C27.8745 30.1652 27.9427 30.0912 27.9837 30.0013C28.0248 29.9114 28.0365 29.8104 28.0171 29.7135C27.9391 29.3149 27.7423 28.9772 27.4267 28.7005C27.3049 28.5943 27.2582 28.6223 27.2866 28.7846ZM39.1989 32.655C38.9984 32.6068 38.8519 32.6627 38.7591 32.8225C38.7474 32.8425 38.7404 32.8651 38.7387 32.8883C38.737 32.9116 38.7406 32.9349 38.7492 32.9565C38.7579 32.978 38.7713 32.9972 38.7884 33.0124C38.8055 33.0276 38.8259 33.0384 38.8478 33.044C39.4742 33.2054 40.0359 33.0734 40.5329 32.648C40.5533 32.6301 40.5694 32.6076 40.5799 32.5822C40.5903 32.5568 40.5949 32.5294 40.5931 32.502C40.5913 32.4747 40.5832 32.4483 40.5696 32.425C40.5559 32.4017 40.5371 32.3822 40.5146 32.368C40.1933 32.1661 39.781 32.4133 39.5108 32.598C39.4649 32.6287 39.4136 32.6495 39.36 32.6593C39.3064 32.6691 39.2516 32.6676 39.1989 32.655Z" fill="black"/>
</svg>
