<svg width="28" height="25" viewBox="0 0 28 25" fill="none" xmlns="http://www.w3.org/2000/svg">
<path d="M13.6477 22.077C13.7313 22.077 13.8148 22.0566 13.8984 22.0157C13.982 21.9748 14.0447 21.9339 14.0865 21.893L24.3677 11.8357C24.6185 11.5904 24.8013 11.3145 24.9162 11.0078C25.0312 10.7012 25.0886 10.3946 25.0886 10.088C25.0886 9.7609 25.0312 9.44916 24.9162 9.15276C24.8013 8.85635 24.6185 8.59572 24.3677 8.37086L19.039 3.15824C18.8092 2.91294 18.5427 2.73407 18.2397 2.62164C17.9367 2.50921 17.6181 2.453 17.2837 2.453C16.9703 2.453 16.6568 2.50921 16.3433 2.62164C16.0299 2.73407 15.7478 2.91294 15.497 3.15824L15.1522 3.49553L17.4718 5.79521C17.7852 6.0814 18.0151 6.40846 18.1614 6.77641C18.3076 7.14436 18.3808 7.53275 18.3808 7.94159C18.3808 8.80014 18.083 9.52071 17.4874 10.1033C16.8919 10.6859 16.1553 10.9772 15.2776 10.9772C14.8597 10.9772 14.4574 10.9056 14.0708 10.7625C13.6842 10.6194 13.3447 10.4048 13.0521 10.1186L10.7012 7.8496L5.21583 13.2155C5.15314 13.2769 5.10612 13.3433 5.07478 13.4148C5.04343 13.4864 5.02776 13.563 5.02776 13.6448C5.02776 13.8083 5.09045 13.9565 5.21583 14.0894C5.34121 14.2223 5.48749 14.2887 5.65466 14.2887C5.73825 14.2887 5.82183 14.2683 5.90542 14.2274C5.98901 14.1865 6.0517 14.1456 6.09349 14.1048L10.3564 9.93465L12.1118 11.6518L7.88016 15.8219C7.81747 15.8832 7.77046 15.9496 7.73911 16.0212C7.70777 16.0927 7.69209 16.1694 7.69209 16.2511C7.69209 16.4147 7.75478 16.5578 7.88016 16.6804C8.00554 16.8031 8.15182 16.8644 8.319 16.8644C8.40258 16.8644 8.48617 16.8439 8.56976 16.8031C8.65334 16.7622 8.71603 16.7213 8.75783 16.6804L13.0208 12.541L14.7761 14.2581L10.5445 18.4282C10.4818 18.469 10.4348 18.5304 10.4034 18.6121C10.3721 18.6939 10.3564 18.7757 10.3564 18.8574C10.3564 19.021 10.4191 19.1641 10.5445 19.2867C10.6699 19.4094 10.8162 19.4707 10.9833 19.4707C11.0669 19.4707 11.1453 19.4554 11.2184 19.4247C11.2916 19.394 11.3595 19.348 11.4222 19.2867L15.6851 15.1473L17.4404 16.8644L13.1775 21.0345C13.1148 21.0958 13.0678 21.1622 13.0364 21.2338C13.0051 21.3053 12.9894 21.382 12.9894 21.4638C12.9894 21.6273 13.0573 21.7704 13.1932 21.893C13.329 22.0157 13.4805 22.077 13.6477 22.077ZM13.6163 24.53C12.8431 24.53 12.1588 24.2796 11.5632 23.7788C10.9677 23.2779 10.6176 22.6494 10.5132 21.893C9.80267 21.7908 9.20711 21.5046 8.72648 21.0345C8.24586 20.5643 7.9533 19.9817 7.84882 19.2867C7.13833 19.1845 6.548 18.8932 6.07782 18.4128C5.60764 17.9325 5.32031 17.355 5.21583 16.6804C4.42175 16.5782 3.77395 16.2409 3.27243 15.6685C2.77091 15.0962 2.52015 14.4216 2.52015 13.6448C2.52015 13.236 2.59851 12.8425 2.75524 12.4643C2.91196 12.0861 3.1366 11.754 3.42916 11.4678L10.7012 4.38474L14.8074 8.40153C14.8492 8.46285 14.9119 8.50884 14.9955 8.53951C15.0791 8.57017 15.1627 8.5855 15.2463 8.5855C15.4343 8.5855 15.5911 8.52929 15.7164 8.41686C15.8418 8.30443 15.9045 8.15623 15.9045 7.97225C15.9045 7.89048 15.8888 7.80872 15.8575 7.72695C15.8262 7.64518 15.7791 7.58386 15.7164 7.54298L11.2341 3.15824C11.0042 2.91294 10.7378 2.73407 10.4348 2.62164C10.1318 2.50921 9.81311 2.453 9.47877 2.453C9.16531 2.453 8.85186 2.50921 8.53841 2.62164C8.22496 2.73407 7.94285 2.91294 7.69209 3.15824L3.27243 7.51231C3.08436 7.69629 2.92763 7.91093 2.80225 8.15623C2.67687 8.40153 2.59329 8.64683 2.55149 8.89213C2.5097 9.13743 2.5097 9.38784 2.55149 9.64336C2.59329 9.89888 2.67687 10.1391 2.80225 10.3639L0.984237 12.1424C0.628992 11.6722 0.367783 11.156 0.200609 10.5939C0.0334348 10.0317 -0.0292554 9.46449 0.0125381 8.89213C0.0543316 8.31976 0.200609 7.76272 0.45137 7.22102C0.702131 6.67932 1.04693 6.19383 1.48576 5.76455L5.90542 1.44114C6.40694 0.970979 6.96593 0.61325 7.58239 0.36795C8.19884 0.12265 8.83097 0 9.47877 0C10.1266 0 10.7587 0.12265 11.3751 0.36795C11.9916 0.61325 12.5401 0.970979 13.0208 1.44114L13.3656 1.77843L13.7104 1.44114C14.2119 0.970979 14.7709 0.61325 15.3873 0.36795C16.0038 0.12265 16.6359 0 17.2837 0C17.9315 0 18.5636 0.12265 19.1801 0.36795C19.7965 0.61325 20.3451 0.970979 20.8257 1.44114L26.123 6.6231C26.6037 7.09326 26.9693 7.63496 27.2201 8.24821C27.4709 8.86146 27.5962 9.48493 27.5962 10.1186C27.5962 10.7523 27.4709 11.3707 27.2201 11.9737C26.9693 12.5767 26.6037 13.1133 26.123 13.5835L15.8418 23.6101C15.5493 23.8963 15.2097 24.1212 14.8231 24.2847C14.4365 24.4482 14.0343 24.53 13.6163 24.53Z" fill="#00024D"/>
</svg>
