<svg width="24" height="25" viewBox="0 0 24 25" fill="none" xmlns="http://www.w3.org/2000/svg">
<path d="M10.125 16.875H13.875V13.75H17V10H13.875V6.875H10.125V10H7V13.75H10.125V16.875ZM12 25C9.10417 24.2708 6.71354 22.6094 4.82812 20.0156C2.94271 17.4219 2 14.5417 2 11.375V3.75L12 0L22 3.75V11.375C22 14.5417 21.0573 17.4219 19.1719 20.0156C17.2865 22.6094 14.8958 24.2708 12 25ZM12 22.375C14.1667 21.6875 15.9583 20.3125 17.375 18.25C18.7917 16.1875 19.5 13.8958 19.5 11.375V5.46875L12 2.65625L4.5 5.46875V11.375C4.5 13.8958 5.20833 16.1875 6.625 18.25C8.04167 20.3125 9.83333 21.6875 12 22.375Z" fill="#00024D"/>
</svg>
