<svg width="24" height="24" viewBox="0 0 24 24" fill="none" xmlns="http://www.w3.org/2000/svg">
<path d="M16.2 10.8C16.7 10.8 17.125 10.625 17.475 10.275C17.825 9.925 18 9.5 18 9C18 8.5 17.825 8.075 17.475 7.725C17.125 7.375 16.7 7.2 16.2 7.2C15.7 7.2 15.275 7.375 14.925 7.725C14.575 8.075 14.4 8.5 14.4 9C14.4 9.5 14.575 9.925 14.925 10.275C15.275 10.625 15.7 10.8 16.2 10.8ZM7.8 10.8C8.3 10.8 8.725 10.625 9.075 10.275C9.425 9.925 9.6 9.5 9.6 9C9.6 8.5 9.425 8.075 9.075 7.725C8.725 7.375 8.3 7.2 7.8 7.2C7.3 7.2 6.875 7.375 6.525 7.725C6.175 8.075 6 8.5 6 9C6 9.5 6.175 9.925 6.525 10.275C6.875 10.625 7.3 10.8 7.8 10.8ZM12 18.6C13.36 18.6 14.595 18.215 15.705 17.445C16.815 16.675 17.62 15.66 18.12 14.4H16.14C15.7 15.14 15.115 15.725 14.385 16.155C13.655 16.585 12.86 16.8 12 16.8C11.14 16.8 10.345 16.585 9.615 16.155C8.885 15.725 8.3 15.14 7.86 14.4H5.88C6.38 15.66 7.185 16.675 8.295 17.445C9.405 18.215 10.64 18.6 12 18.6ZM12 24C10.34 24 8.78 23.685 7.32 23.055C5.86 22.425 4.59 21.57 3.51 20.49C2.43 19.41 1.575 18.14 0.945 16.68C0.315 15.22 0 13.66 0 12C0 10.34 0.315 8.78 0.945 7.32C1.575 5.86 2.43 4.59 3.51 3.51C4.59 2.43 5.86 1.575 7.32 0.945C8.78 0.315 10.34 0 12 0C13.66 0 15.22 0.315 16.68 0.945C18.14 1.575 19.41 2.43 20.49 3.51C21.57 4.59 22.425 5.86 23.055 7.32C23.685 8.78 24 10.34 24 12C24 13.66 23.685 15.22 23.055 16.68C22.425 18.14 21.57 19.41 20.49 20.49C19.41 21.57 18.14 22.425 16.68 23.055C15.22 23.685 13.66 24 12 24ZM12 21.6C14.68 21.6 16.95 20.67 18.81 18.81C20.67 16.95 21.6 14.68 21.6 12C21.6 9.32 20.67 7.05 18.81 5.19C16.95 3.33 14.68 2.4 12 2.4C9.32 2.4 7.05 3.33 5.19 5.19C3.33 7.05 2.4 9.32 2.4 12C2.4 14.68 3.33 16.95 5.19 18.81C7.05 20.67 9.32 21.6 12 21.6Z" fill="#00024D"/>
</svg>
